<svg xmlns="http://www.w3.org/2000/svg" xmlns:xlink="http://www.w3.org/1999/xlink" width="500" zoomAndPan="magnify" viewBox="0 0 375 374.999991" height="500" preserveAspectRatio="xMidYMid meet" version="1.0"><defs><g/><clipPath id="f45b3577e2"><path d="M 74.871094 148.847656 L 300.355469 148.847656 L 300.355469 214.445312 L 74.871094 214.445312 Z M 74.871094 148.847656 " clip-rule="nonzero"/></clipPath><clipPath id="66d5d3f9cc"><path d="M 187.5 148.847656 C 125.296875 148.847656 74.871094 163.53125 74.871094 181.644531 C 74.871094 199.761719 125.296875 214.445312 187.5 214.445312 C 249.703125 214.445312 300.128906 199.761719 300.128906 181.644531 C 300.128906 163.53125 249.703125 148.847656 187.5 148.847656 Z M 187.5 148.847656 " clip-rule="nonzero"/></clipPath><clipPath id="17ec21f2a1"><path d="M 0.871094 0.847656 L 226.238281 0.847656 L 226.238281 66.445312 L 0.871094 66.445312 Z M 0.871094 0.847656 " clip-rule="nonzero"/></clipPath><clipPath id="7356e42d11"><path d="M 113.5 0.847656 C 51.296875 0.847656 0.871094 15.53125 0.871094 33.644531 C 0.871094 51.761719 51.296875 66.445312 113.5 66.445312 C 175.703125 66.445312 226.128906 51.761719 226.128906 33.644531 C 226.128906 15.53125 175.703125 0.847656 113.5 0.847656 Z M 113.5 0.847656 " clip-rule="nonzero"/></clipPath><clipPath id="bf6a759a18"><rect x="0" width="227" y="0" height="67"/></clipPath><clipPath id="7071d5a6a8"><path d="M 90 148 L 285 148 L 285 215 L 90 215 Z M 90 148 " clip-rule="nonzero"/></clipPath><clipPath id="07c115525c"><path d="M 89.527344 151.972656 L 283.199219 145.210938 L 285.507812 211.316406 L 91.835938 218.082031 Z M 89.527344 151.972656 " clip-rule="nonzero"/></clipPath><clipPath id="327c32a19a"><path d="M 186.347656 148.59375 C 132.875 150.460938 90.042969 166.773438 90.679688 185.027344 C 91.320312 203.28125 135.183594 216.566406 188.65625 214.699219 C 242.125 212.832031 284.957031 196.519531 284.320312 178.265625 C 283.679688 160.011719 239.816406 146.726562 186.347656 148.59375 Z M 186.347656 148.59375 " clip-rule="nonzero"/></clipPath><clipPath id="f017450bdb"><path d="M 0 0 L 195 0 L 195 67 L 0 67 Z M 0 0 " clip-rule="nonzero"/></clipPath><clipPath id="d24d42c0f6"><path d="M -0.472656 3.972656 L 193.199219 -2.789062 L 195.507812 63.316406 L 1.835938 70.082031 Z M -0.472656 3.972656 " clip-rule="nonzero"/></clipPath><clipPath id="81e3aade8d"><path d="M 96.347656 0.59375 C 42.875 2.460938 0.0429688 18.773438 0.679688 37.027344 C 1.320312 55.28125 45.183594 68.566406 98.65625 66.699219 C 152.125 64.832031 194.957031 48.519531 194.320312 30.265625 C 193.679688 12.011719 149.816406 -1.273438 96.347656 0.59375 Z M 96.347656 0.59375 " clip-rule="nonzero"/></clipPath><clipPath id="d4657aff04"><rect x="0" width="195" y="0" height="67"/></clipPath><clipPath id="d0989686f2"><rect x="0" width="114" y="0" height="35"/></clipPath></defs><rect x="-37.5" width="450" fill="#ffffff" y="-37.499999" height="449.999989" fill-opacity="1"/><rect x="-37.5" width="450" fill="#164081" y="-37.499999" height="449.999989" fill-opacity="1"/><g clip-path="url(#f45b3577e2)"><g clip-path="url(#66d5d3f9cc)"><g transform="matrix(1, 0, 0, 1, 74, 148)"><g clip-path="url(#bf6a759a18)"><g clip-path="url(#17ec21f2a1)"><g clip-path="url(#7356e42d11)"><path fill="#ffffff" d="M 0.871094 0.847656 L 226.097656 0.847656 L 226.097656 66.445312 L 0.871094 66.445312 Z M 0.871094 0.847656 " fill-opacity="1" fill-rule="nonzero"/></g></g></g></g></g></g><g clip-path="url(#7071d5a6a8)"><g clip-path="url(#07c115525c)"><g clip-path="url(#327c32a19a)"><g transform="matrix(1, 0, 0, 1, 90, 148)"><g clip-path="url(#d4657aff04)"><g clip-path="url(#f017450bdb)"><g clip-path="url(#d24d42c0f6)"><g clip-path="url(#81e3aade8d)"><path fill="#164081" d="M -0.472656 3.972656 L 193.199219 -2.789062 L 195.507812 63.316406 L 1.835938 70.082031 Z M -0.472656 3.972656 " fill-opacity="1" fill-rule="nonzero"/></g></g></g></g></g></g></g></g><g transform="matrix(1, 0, 0, 1, 131, 164)"><g clip-path="url(#d0989686f2)"><g fill="#ffffff" fill-opacity="1"><g transform="translate(1.589387, 28.810513)"><g><path d="M 14.0625 -19.328125 L 18.859375 -19.328125 L 14.765625 0 L 8.40625 0 L 6.828125 -14.484375 L 6.359375 -9.921875 L 4.28125 0 L -0.53125 0 L 3.5625 -19.328125 L 9.890625 -19.328125 L 11.515625 -5.09375 L 11.96875 -9.21875 Z M 14.0625 -19.328125 "/></g></g></g><g fill="#ffffff" fill-opacity="1"><g transform="translate(18.839746, 28.810513)"><g><path d="M -0.53125 0 L 3.5625 -19.328125 L 13.671875 -19.328125 L 12.78125 -15.046875 L 7.78125 -15.046875 L 7.109375 -11.84375 L 11.578125 -11.84375 L 10.671875 -7.53125 L 6.1875 -7.53125 L 5.515625 -4.3125 L 10.484375 -4.3125 L 9.578125 0 Z M -0.53125 0 "/></g></g></g><g fill="#ffffff" fill-opacity="1"><g transform="translate(30.82539, 28.810513)"><g><path d="M -1.421875 0 L 4.625 -9.671875 L 2.796875 -19.328125 L 8.0625 -19.328125 L 8.578125 -12.328125 L 8.71875 -12.328125 L 12.1875 -19.328125 L 17.59375 -19.328125 L 11.484375 -9.671875 L 13.359375 0 L 8.1875 0 L 7.53125 -6.4375 L 7.390625 -6.4375 L 4.03125 0 Z M -1.421875 0 "/></g></g></g><g fill="#ffffff" fill-opacity="1"><g transform="translate(45.919457, 28.810513)"><g><path d="M 2.125 0 L 5.328125 -15.046875 L 1.90625 -15.046875 L 2.796875 -19.328125 L 14.8125 -19.328125 L 13.890625 -15.046875 L 10.453125 -15.046875 L 7.25 0 Z M 2.125 0 "/></g></g></g><g fill="#ffffff" fill-opacity="1"><g transform="translate(58.381154, 28.810513)"><g><path d="M -0.5 -4 C -0.238281 -3.988281 -0.0390625 -3.976562 0.09375 -3.96875 C 0.238281 -3.957031 0.40625 -3.953125 0.59375 -3.953125 C 1.050781 -3.953125 1.550781 -4.117188 2.09375 -4.453125 C 2.632812 -4.785156 3 -5.382812 3.1875 -6.25 L 5.96875 -19.328125 L 11.09375 -19.328125 L 8.09375 -5.125 C 7.738281 -3.425781 6.988281 -2.097656 5.84375 -1.140625 C 4.707031 -0.191406 3.28125 0.28125 1.5625 0.28125 C 1.53125 0.28125 1.359375 0.269531 1.046875 0.25 C 0.742188 0.226562 0.398438 0.191406 0.015625 0.140625 C -0.367188 0.0859375 -0.703125 0.015625 -0.984375 -0.078125 Z M -0.5 -4 "/></g></g></g><g fill="#ffffff" fill-opacity="1"><g transform="translate(67.706425, 28.810513)"><g><path d="M 6.109375 0.28125 C 3.710938 0.28125 2.101562 -0.53125 1.28125 -2.15625 C 0.46875 -3.78125 0.441406 -6.421875 1.203125 -10.078125 C 1.710938 -12.378906 2.335938 -14.222656 3.078125 -15.609375 C 3.828125 -17.003906 4.738281 -18.019531 5.8125 -18.65625 C 6.882812 -19.289062 8.148438 -19.609375 9.609375 -19.609375 C 12.085938 -19.609375 13.757812 -18.796875 14.625 -17.171875 C 15.5 -15.546875 15.554688 -12.90625 14.796875 -9.25 C 14.304688 -6.945312 13.671875 -5.097656 12.890625 -3.703125 C 12.117188 -2.316406 11.175781 -1.304688 10.0625 -0.671875 C 8.957031 -0.0351562 7.640625 0.28125 6.109375 0.28125 Z M 6.71875 -4.09375 C 7.113281 -4.09375 7.488281 -4.269531 7.84375 -4.625 C 8.195312 -4.976562 8.546875 -5.59375 8.890625 -6.46875 C 9.234375 -7.34375 9.578125 -8.546875 9.921875 -10.078125 C 10.210938 -11.523438 10.382812 -12.625 10.4375 -13.375 C 10.5 -14.132812 10.4375 -14.65625 10.25 -14.9375 C 10.0625 -15.21875 9.753906 -15.359375 9.328125 -15.359375 C 8.929688 -15.359375 8.550781 -15.175781 8.1875 -14.8125 C 7.820312 -14.445312 7.460938 -13.816406 7.109375 -12.921875 C 6.753906 -12.035156 6.410156 -10.8125 6.078125 -9.25 C 5.773438 -7.84375 5.597656 -6.765625 5.546875 -6.015625 C 5.503906 -5.273438 5.582031 -4.769531 5.78125 -4.5 C 5.976562 -4.226562 6.289062 -4.09375 6.71875 -4.09375 Z M 6.71875 -4.09375 "/></g></g></g><g fill="#ffffff" fill-opacity="1"><g transform="translate(82.63247, 28.810513)"><g><path d="M -0.53125 0 L 3.5625 -19.328125 L 10.5 -19.328125 C 11.882812 -19.328125 12.976562 -19.070312 13.78125 -18.5625 C 14.582031 -18.0625 15.117188 -17.378906 15.390625 -16.515625 C 15.660156 -15.648438 15.675781 -14.679688 15.4375 -13.609375 C 15.269531 -12.734375 14.929688 -12 14.421875 -11.40625 C 13.921875 -10.820312 13.148438 -10.410156 12.109375 -10.171875 L 11.65625 -10 C 12.863281 -9.832031 13.695312 -9.304688 14.15625 -8.421875 C 14.613281 -7.535156 14.695312 -6.398438 14.40625 -5.015625 C 14.0625 -3.441406 13.320312 -2.210938 12.1875 -1.328125 C 11.050781 -0.441406 9.367188 0 7.140625 0 Z M 6.828125 -11.625 L 8.546875 -11.625 C 9.085938 -11.625 9.597656 -11.832031 10.078125 -12.25 C 10.566406 -12.675781 10.882812 -13.242188 11.03125 -13.953125 C 11.238281 -14.890625 10.765625 -15.359375 9.609375 -15.359375 L 7.640625 -15.359375 Z M 5.1875 -3.84375 L 6.859375 -3.84375 C 7.554688 -3.84375 8.171875 -4.082031 8.703125 -4.5625 C 9.234375 -5.050781 9.582031 -5.707031 9.75 -6.53125 C 9.894531 -7.164062 9.828125 -7.609375 9.546875 -7.859375 C 9.273438 -8.109375 8.8125 -8.234375 8.15625 -8.234375 L 6.109375 -8.234375 Z M 5.1875 -3.84375 "/></g></g></g><g fill="#ffffff" fill-opacity="1"><g transform="translate(98.090585, 28.810513)"><g><path d="M 5.546875 0.28125 C 4.859375 0.28125 4.148438 0.191406 3.421875 0.015625 C 2.691406 -0.160156 2.03125 -0.476562 1.4375 -0.9375 C 0.851562 -1.394531 0.410156 -2.03125 0.109375 -2.84375 C -0.191406 -3.65625 -0.273438 -4.695312 -0.140625 -5.96875 L 4.125 -7 C 4.007812 -5.882812 4.144531 -5.078125 4.53125 -4.578125 C 4.925781 -4.085938 5.394531 -3.84375 5.9375 -3.84375 C 6.40625 -3.84375 6.820312 -3.960938 7.1875 -4.203125 C 7.550781 -4.441406 7.742188 -4.914062 7.765625 -5.625 C 7.773438 -6.113281 7.625 -6.535156 7.3125 -6.890625 C 7.007812 -7.242188 6.609375 -7.582031 6.109375 -7.90625 C 5.617188 -8.238281 5.101562 -8.59375 4.5625 -8.96875 C 4.0625 -9.300781 3.570312 -9.722656 3.09375 -10.234375 C 2.613281 -10.753906 2.257812 -11.375 2.03125 -12.09375 C 1.8125 -12.8125 1.804688 -13.65625 2.015625 -14.625 C 2.335938 -16.15625 3.039062 -17.359375 4.125 -18.234375 C 5.21875 -19.117188 6.738281 -19.5625 8.6875 -19.5625 C 9.25 -19.5625 9.847656 -19.492188 10.484375 -19.359375 C 11.117188 -19.222656 11.707031 -18.984375 12.25 -18.640625 C 12.789062 -18.296875 13.226562 -17.796875 13.5625 -17.140625 C 13.894531 -16.492188 14.050781 -15.644531 14.03125 -14.59375 L 10.140625 -13.53125 C 10.160156 -14.28125 10 -14.832031 9.65625 -15.1875 C 9.3125 -15.539062 8.910156 -15.734375 8.453125 -15.765625 C 8.046875 -15.804688 7.671875 -15.71875 7.328125 -15.5 C 6.992188 -15.289062 6.785156 -14.914062 6.703125 -14.375 C 6.609375 -13.832031 6.796875 -13.378906 7.265625 -13.015625 C 7.742188 -12.648438 8.328125 -12.269531 9.015625 -11.875 C 9.523438 -11.59375 10.03125 -11.285156 10.53125 -10.953125 C 11.039062 -10.617188 11.484375 -10.203125 11.859375 -9.703125 C 12.242188 -9.210938 12.515625 -8.617188 12.671875 -7.921875 C 12.835938 -7.234375 12.816406 -6.394531 12.609375 -5.40625 C 12.210938 -3.59375 11.394531 -2.191406 10.15625 -1.203125 C 8.914062 -0.210938 7.378906 0.28125 5.546875 0.28125 Z M 5.546875 0.28125 "/></g></g></g></g></g></svg>